HIERARCHY
ROOT Hips
{
 OFFSET 0.000000 0.000000 0.000000
 CHANNELS 6 Xposition Yposition Zposition Yrotation Xrotation Zrotation
 JOINT Chest
 {
  OFFSET 0.000000 9.857222 0.000240
  CHANNELS 3 Yrotation Xrotation Zrotation
  JOINT Chest2
  {
   OFFSET 0.000000 10.876940 -0.000436
   CHANNELS 3 Yrotation Xrotation Zrotation
   JOINT Chest3
   {
    OFFSET 0.000000 9.827798 0.000000
    CHANNELS 3 Yrotation Xrotation Zrotation
    JOINT Chest4
    {
     OFFSET 0.000000 9.827798 0.000000
     CHANNELS 3 Yrotation Xrotation Zrotation
     JOINT Neck
     {
      OFFSET 0.000000 13.831992 0.000000
      CHANNELS 3 Yrotation Xrotation Zrotation
      JOINT Head
      {
       OFFSET 0.000000 9.147643 -0.001036
       CHANNELS 3 Yrotation Xrotation Zrotation
       End Site
       {
        OFFSET 0.000000 17.515799 -0.000541
       }
      }
     }
     JOINT RightCollar
     {
      OFFSET -3.001579 7.717577 0.000000
      CHANNELS 3 Yrotation Xrotation Zrotation
      JOINT RightShoulder
      {
       OFFSET -14.002642 0.000000 0.000000
       CHANNELS 3 Yrotation Xrotation Zrotation
       JOINT RightElbow
       {
        OFFSET -30.053852 0.000000 0.000000
        CHANNELS 3 Yrotation Xrotation Zrotation
        JOINT RightWrist
        {
         OFFSET -24.564923 0.000000 -0.000000
         CHANNELS 3 Yrotation Xrotation Zrotation
         End Site
         {
          OFFSET -18.334355 0.000000 0.000000
         }
        }
       }
      }
     }
     JOINT LeftCollar
     {
      OFFSET 3.001579 7.717577 0.000000
      CHANNELS 3 Yrotation Xrotation Zrotation
      JOINT LeftShoulder
      {
       OFFSET 14.002642 0.000000 0.000000
       CHANNELS 3 Yrotation Xrotation Zrotation
       JOINT LeftElbow
       {
        OFFSET 30.053852 0.000000 0.000000
        CHANNELS 3 Yrotation Xrotation Zrotation
        JOINT LeftWrist
        {
         OFFSET 24.564923 0.000000 -0.000000
         CHANNELS 3 Yrotation Xrotation Zrotation
         End Site
         {
          OFFSET 18.334355 0.000000 0.000000
         }
        }
       }
      }
     }
    }
   }
  }
 }
 JOINT RightHip
 {
  OFFSET -8.003235 -0.001175 -0.000120
  CHANNELS 3 Yrotation Xrotation Zrotation
  JOINT RightKnee
  {
   OFFSET 0.000000 -41.759727 0.000113
   CHANNELS 3 Yrotation Xrotation Zrotation
   JOINT RightAnkle
   {
    OFFSET 0.000000 -40.728748 0.000159
    CHANNELS 3 Yrotation Xrotation Zrotation
    JOINT RightToe
    {
     OFFSET 0.000000 -6.515296 14.732841
     CHANNELS 3 Yrotation Xrotation Zrotation
     End Site
     {
      OFFSET 0.000000 -1.502839 6.412115
     }
    }
   }
  }
 }
 JOINT LeftHip
 {
  OFFSET 8.003235 -0.001175 -0.000120
  CHANNELS 3 Yrotation Xrotation Zrotation
  JOINT LeftKnee
  {
   OFFSET 0.000000 -41.759727 0.000113
   CHANNELS 3 Yrotation Xrotation Zrotation
   JOINT LeftAnkle
   {
    OFFSET 0.000000 -40.728748 0.000159
    CHANNELS 3 Yrotation Xrotation Zrotation
    JOINT LeftToe
    {
     OFFSET 0.000000 -6.515296 14.732841
     CHANNELS 3 Yrotation Xrotation Zrotation
     End Site
     {
      OFFSET 0.000000 -1.502839 6.412115
     }
    }
   }
  }
 }
}
MOTION
Frames: 17
Frame Time: 0.016667
9.152165 90.497145 15.681353 -34.535953 -16.229492 -0.446021 1.167808 7.130342 -0.303326 0.563454 3.128643 -0.112051 0.563454 3.128643 -0.112051 0.423060 2.346381 -0.086905 -2.394416 19.620718 1.251458 -4.762631 0.340310 3.030600 7.468964 1.319731 10.493728 42.527870 -9.181953 88.330313 9.451216 0.199814 -1.016001 -1.783571 -2.491969 -4.944201 -22.131737 2.847328 -12.052775 -29.947698 11.192215 -67.977593 -24.766559 -48.737598 0.145723 2.751539 4.946537 4.416675 3.250211 25.909548 -2.313484 0.218902 -5.521431 4.415499 -0.717492 -3.973200 -1.707247 -0.152629 0.135276 -0.107568 -1.193551 18.784334 0.145490 -0.042521 0.580287 -1.044195 1.578930 -3.804505 1.025182 0.026677 0.012682 0.004155
9.155652 90.497368 15.676651 -34.537409 -16.242220 -0.446627 1.164789 7.140462 -0.295021 0.561113 3.133849 -0.108996 0.561113 3.133849 -0.108996 0.421289 2.350289 -0.084607 -2.398305 19.618006 1.250724 -4.769606 0.335421 3.030584 7.470323 1.308091 10.493450 42.537756 -9.169213 88.343138 9.445983 0.181600 -1.027539 -1.780038 -2.497347 -4.939006 -22.132449 2.836651 -12.056515 -29.941673 11.183764 -67.976228 -24.751558 -48.732714 0.136125 2.757650 4.942116 4.428152 3.246955 25.917557 -2.319120 0.203815 -5.517927 4.430171 -0.724769 -3.973432 -1.708395 -0.150510 0.132975 -0.103060 -1.173255 18.791336 0.147036 -0.043813 0.583842 -1.032225 1.597737 -3.801090 1.018651 0.026187 0.012117 0.003957
9.158414 90.497507 15.671998 -34.535444 -16.255829 -0.448219 1.161839 7.152834 -0.286389 0.558662 3.140254 -0.106261 0.558662 3.140254 -0.106261 0.419438 2.355096 -0.082549 -2.404585 19.615913 1.251643 -4.781435 0.331877 3.034299 7.469159 1.291712 10.493445 42.545378 -9.152279 88.356597 9.446861 0.167323 -1.039617 -1.769742 -2.503597 -4.941338 -22.132261 2.820430 -12.059307 -29.946325 11.180595 -67.974864 -24.740240 -48.756819 0.135987 2.764795 4.954864 4.436948 3.255655 25.926316 -2.316390 0.179673 -5.513810 4.436970 -0.720400 -3.972141 -1.706181 -0.149240 0.129991 -0.098297 -1.157155 18.799182 0.149955 -0.043129 0.587599 -1.024601 1.561315 -3.798854 1.016728 0.026623 0.013220 0.004932
9.165727 90.497569 15.669588 -34.535328 -16.266488 -0.447290 1.162460 7.164738 -0.278733 0.556999 3.147436 -0.103087 0.556999 3.147436 -0.103087 0.418175 2.360485 -0.080167 -2.415508 19.613869 1.252608 -4.801755 0.328645 3.039534 7.458382 1.281563 10.489731 42.558509 -9.151122 88.368200 9.451569 0.155818 -1.050982 -1.767126 -2.509587 -4.937837 -22.132931 2.801171 -12.064235 -29.952994 11.186757 -67.975747 -24.741602 -48.772707 0.127568 2.756024 4.945382 4.450727 3.260094 25.933864 -2.318873 0.183918 -5.517643 4.433140 -0.723047 -3.965806 -1.695694 -0.152559 0.127504 -0.095273 -1.135929 18.805165 0.143660 -0.043867 0.588581 -1.005711 1.534640 -3.795872 1.010908 0.025330 0.014798 0.005950
9.175030 90.497943 15.669292 -34.537781 -16.275246 -0.448289 1.163057 7.179158 -0.269585 0.556211 3.154527 -0.099949 0.556211 3.154527 -0.099949 0.417569 2.365807 -0.077816 -2.427659 19.608265 1.255613 -4.825086 0.318971 3.049032 7.443858 1.263077 10.484685 42.566272 -9.147819 88.382755 9.455024 0.151653 -1.053354 -1.768514 -2.512624 -4.933296 -22.134073 2.783029 -12.069970 -29.946058 11.185173 -67.982794 -24.760767 -48.771320 0.166093 2.737888 4.927465 4.440829 3.282106 25.936773 -2.314749 0.184046 -5.515244 4.431317 -0.732574 -3.962586 -1.689177 -0.150916 0.125022 -0.089979 -1.102964 18.809538 0.142058 -0.045445 0.590593 -0.988075 1.532152 -3.793764 1.004790 0.024199 0.015413 0.007102
9.183081 90.498515 15.666057 -34.540062 -16.277995 -0.451670 1.166457 7.187272 -0.260121 0.555485 3.160172 -0.097464 0.555485 3.160172 -0.097464 0.417013 2.370043 -0.075955 -2.438386 19.598591 1.262053 -4.847039 0.301858 3.064540 7.435433 1.250839 10.487642 42.560361 -9.141015 88.381018 9.463399 0.147843 -1.050170 -1.764700 -2.509053 -4.934088 -22.136678 2.783763 -12.072081 -29.915276 11.170702 -67.983509 -24.791059 -48.777135 0.189527 2.705509 4.911048 4.439188 3.333548 25.928779 -2.293394 0.166325 -5.505440 4.425314 -0.738381 -3.959998 -1.682332 -0.151940 0.121910 -0.085901 -1.087090 18.805724 0.150516 -0.039111 0.594845 -0.994141 1.498099 -3.792389 1.009683 0.026239 0.016781 0.009680
9.193756 90.498741 15.664009 -34.539199 -16.273429 -0.450756 1.168828 7.190733 -0.256607 0.554840 3.163367 -0.095305 0.554840 3.163367 -0.095305 0.416518 2.372441 -0.074335 -2.447920 19.582531 1.270258 -4.867612 0.272934 3.083190 7.428524 1.237748 10.490219 42.543543 -9.137725 88.382163 9.464651 0.157292 -1.049549 -1.760517 -2.509607 -4.932638 -22.141391 2.775934 -12.073603 -29.883832 11.160156 -67.990601 -24.811904 -48.782990 0.214843 2.674160 4.899051 4.440355 3.365186 25.914222 -2.295593 0.153266 -5.496933 4.433606 -0.723290 -3.956873 -1.676463 -0.159126 0.119883 -0.085200 -1.082273 18.797267 0.150175 -0.028128 0.591922 -0.997830 1.511365 -3.787179 1.011175 0.027173 0.017819 0.011676
9.208586 90.498542 15.663593 -34.538296 -16.266527 -0.448937 1.172191 7.192419 -0.253578 0.553972 3.166347 -0.093258 0.553972 3.166347 -0.093258 0.415857 2.374678 -0.072798 -2.455062 19.559324 1.280484 -4.884725 0.230741 3.105112 7.424184 1.226365 10.491286 42.528435 -9.144105 88.387254 9.461913 0.154378 -1.051321 -1.758463 -2.506160 -4.922186 -22.146689 2.768368 -12.073283 -29.882442 11.159177 -68.000685 -24.835512 -48.794681 0.241741 2.646636 4.882661 4.451334 3.394533 25.897947 -2.297086 0.132181 -5.488387 4.437470 -0.728348 -3.954328 -1.666027 -0.167318 0.118368 -0.085172 -1.065279 18.786359 0.139874 -0.034694 0.588067 -0.985598 1.513301 -3.782606 1.011666 0.026919 0.020381 0.012574
9.221396 90.498817 15.664681 -34.534069 -16.263498 -0.452346 1.174006 7.197360 -0.246019 0.554056 3.168489 -0.091247 0.554056 3.168489 -0.091247 0.415909 2.376286 -0.071293 -2.460921 19.532863 1.291497 -4.899878 0.182496 3.128226 7.418201 1.219006 10.494306 42.519797 -9.145957 88.386679 9.461877 0.153426 -1.048701 -1.757531 -2.505189 -4.914475 -22.153257 2.765740 -12.074391 -29.901830 11.163380 -68.008090 -24.859415 -48.823196 0.273745 2.631953 4.878182 4.453166 3.408255 25.891510 -2.290637 0.127602 -5.488875 4.428088 -0.751802 -3.950111 -1.657443 -0.162680 0.117108 -0.079544 -1.011423 18.782787 0.151740 -0.068927 0.580312 -0.979696 1.505646 -3.778909 1.011349 0.027163 0.023900 0.014919
9.232377 90.499543 15.668530 -34.528383 -16.267509 -0.452732 1.171285 7.207816 -0.243413 0.555361 3.170280 -0.089057 0.555361 3.170280 -0.089057 0.416877 2.377632 -0.069659 -2.466142 19.505273 1.301491 -4.913603 0.132075 3.149342 7.415395 1.204967 10.499664 42.515194 -9.144626 88.392802 9.457634 0.151729 -1.047875 -1.757127 -2.501258 -4.916613 -22.160420 2.760148 -12.074044 -29.927446 11.179425 -68.008035 -24.866805 -48.861379 0.274880 2.629262 4.881219 4.456886 3.397777 25.899619 -2.300189 0.124093 -5.494527 4.428048 -0.749669 -3.949033 -1.654778 -0.159802 0.117376 -0.073957 -0.971182 18.790604 0.157496 -0.092788 0.567728 -0.978697 1.480874 -3.773076 1.015678 0.027954 0.025437 0.016937
9.243600 90.500142 15.673475 -34.524405 -16.264904 -0.456573 1.168964 7.213059 -0.236896 0.556222 3.170563 -0.086918 0.556222 3.170563 -0.086918 0.417511 2.377846 -0.068060 -2.470405 19.479985 1.308259 -4.924492 0.085712 3.164173 7.411790 1.198966 10.503018 42.534934 -9.143748 88.398687 9.457957 0.137128 -1.058559 -1.757247 -2.494539 -4.916781 -22.167790 2.758546 -12.073329 -29.954926 11.184621 -68.017264 -24.870160 -48.889131 0.284381 2.630128 4.880252 4.459789 3.386722 25.901256 -2.302126 0.128113 -5.502509 4.418203 -0.747319 -3.945484 -1.650706 -0.147916 0.116725 -0.066562 -0.947783 18.792633 0.159931 -0.102452 0.555141 -0.973396 1.507947 -3.769048 1.014181 0.025569 0.026981 0.018211
9.255361 90.500314 15.676944 -34.523366 -16.256988 -0.459331 1.169433 7.213869 -0.229028 0.557043 3.170450 -0.084685 0.557043 3.170450 -0.084685 0.418115 2.377763 -0.066390 -2.473441 19.457261 1.311249 -4.931865 0.043850 3.171612 7.409878 1.191874 10.505815 42.562778 -9.140838 88.401633 9.461681 0.121447 -1.072857 -1.759196 -2.489327 -4.909964 -22.171861 2.757851 -12.075043 -29.975563 11.179042 -68.030558 -24.869279 -48.901478 0.295849 2.637035 4.885683 4.452887 3.401254 25.898092 -2.289422 0.130611 -5.515472 4.394258 -0.757287 -3.938213 -1.638595 -0.140953 0.116746 -0.061224 -0.930146 18.790040 0.165138 -0.108476 0.539649 -0.984453 1.497283 -3.762581 1.026446 0.024602 0.028426 0.018685
9.262688 90.500919 15.682535 -34.511008 -16.264642 -0.466150 1.158982 7.225410 -0.219779 0.557204 3.169909 -0.082104 0.557204 3.169909 -0.082104 0.418223 2.377360 -0.064455 -2.475094 19.438479 1.311370 -4.935662 0.009084 3.173202 7.404379 1.184225 10.511506 42.599032 -9.132031 88.402533 9.460295 0.102739 -1.081820 -1.755186 -2.486773 -4.908929 -22.175149 2.754762 -12.076176 -29.977741 11.174367 -68.034560 -24.843142 -48.905545 0.270733 2.645971 4.895044 4.449877 3.428095 25.902469 -2.274112 0.142056 -5.499332 4.397607 -0.814818 -3.956687 -1.653048 -0.122650 0.119204 -0.049460 -0.933150 18.803469 0.175398 -0.132035 0.527045 -1.004635 1.502125 -3.760450 1.039466 0.023958 0.030289 0.019859
9.268771 90.501495 15.692110 -34.493693 -16.280620 -0.466150 1.142477 7.242109 -0.218755 0.557192 3.169933 -0.080191 0.557192 3.169933 -0.080191 0.418204 2.377379 -0.063021 -2.475425 19.425738 1.309273 -4.936112 -0.014653 3.170052 7.403282 1.174954 10.514920 42.621958 -9.126691 88.405064 9.458963 0.093522 -1.087348 -1.756056 -2.480589 -4.908770 -22.173969 2.745004 -12.075272 -29.979390 11.173207 -68.050444 -24.831216 -48.894560 0.264459 2.651052 4.893588 4.445453 3.462205 25.917001 -2.265208 0.164216 -5.478602 4.397007 -0.858786 -3.985698 -1.663555 -0.111255 0.125483 -0.039243 -0.945049 18.829489 0.174787 -0.164200 0.509000 -1.024424 1.536841 -3.754711 1.053505 0.022522 0.028943 0.019843
9.271495 90.501394 15.700220 -34.479648 -16.291346 -0.470782 1.132609 7.255433 -0.212761 0.557007 3.171191 -0.079084 0.557007 3.171191 -0.079084 0.418059 2.378324 -0.062191 -2.474943 19.416877 1.306220 -4.934624 -0.031281 3.164726 7.400996 1.154474 10.520985 42.636226 -9.113183 88.400023 9.462037 0.087469 -1.085123 -1.754642 -2.476781 -4.912665 -22.174224 2.729487 -12.068769 -29.981794 11.176919 -68.060332 -24.824404 -48.893698 0.257765 2.659132 4.900472 4.445596 3.491946 25.932541 -2.247230 0.165131 -5.470137 4.402539 -0.902381 -4.007099 -1.690452 -0.093437 0.130128 -0.023459 -0.931237 18.852695 0.188433 -0.212589 0.488355 -1.043241 1.544675 -3.751991 1.065209 0.022020 0.030988 0.020755
9.270855 90.501413 15.710301 -34.462996 -16.312675 -0.475455 1.122794 7.275826 -0.207577 0.558513 3.174149 -0.077806 0.558513 3.174149 -0.077806 0.419182 2.380543 -0.061243 -2.475079 19.414470 1.303423 -4.934092 -0.035889 3.159768 7.391896 1.148552 10.526146 42.641439 -9.112891 88.379271 9.464489 0.089160 -1.077092 -1.752254 -2.472382 -4.918613 -22.179354 2.725975 -12.064043 -29.981802 11.168878 -68.056418 -24.812798 -48.867279 0.250585 2.666450 4.895255 4.431434 3.492617 25.959592 -2.246997 0.216475 -5.461990 4.417371 -0.960685 -4.033882 -1.732928 -0.071625 0.135740 -0.001701 -0.924454 18.888692 0.203843 -0.270035 0.466892 -1.069864 1.549605 -3.750355 1.081637 0.019152 0.032366 0.021087
9.265806 90.501929 15.714872 -34.449258 -16.331566 -0.493055 1.121314 7.289469 -0.186758 0.559271 3.178370 -0.075566 0.559271 3.178370 -0.075566 0.419739 2.383710 -0.059571 -2.474271 19.419410 1.297703 -4.930630 -0.027063 3.148842 7.382640 1.153750 10.525339 42.643396 -9.121459 88.343918 9.461935 0.098610 -1.063633 -1.749524 -2.471797 -4.916260 -22.181211 2.722022 -12.065897 -29.991491 11.160139 -68.051223 -24.806654 -48.849686 0.236985 2.677146 4.901819 4.418937 3.566496 25.971775 -2.194760 0.252335 -5.439017 4.430185 -1.031535 -4.062674 -1.802271 -0.031751 0.137964 0.030626 -0.913331 18.920369 0.233662 -0.294506 0.450022 -1.088666 1.529008 -3.752408 1.090852 0.014646 0.035503 0.019737
